<?xml version="1.0" encoding="iso-8859-1"?>
<!-- Uploaded to: SVG Repo, www.svgrepo.com, Generator: SVG Repo Mixer Tools -->
<svg height="800px" width="800px" version="1.1" id="Layer_1" xmlns="http://www.w3.org/2000/svg" xmlns:xlink="http://www.w3.org/1999/xlink" 
	 viewBox="0 0 392.792 392.792" xml:space="preserve">
<g>
	<path style="fill:#FFFFFF;" d="M144.808,222.739c-0.776-8.663-1.228-17.519-1.228-26.376c0-8.857,0.453-17.713,1.228-26.376
		h-41.826c-2.392,8.404-3.685,17.261-3.685,26.376c0,9.115,1.422,17.907,3.685,26.376H144.808z"/>
	<path style="fill:#FFFFFF;" d="M169.956,148.202h52.622c-6.335-30.513-17.842-49.002-26.376-49.002l0,0l0,0
		C187.863,99.2,176.291,117.689,169.956,148.202z"/>
	<path style="fill:#FFFFFF;" d="M147.717,148.202c2.844-15.903,7.24-30.448,13.123-42.214
		c-20.622,8.145-37.818,23.079-48.743,42.214H147.717L147.717,148.202z"/>
	<path style="fill:#FFFFFF;" d="M165.366,196.364c0,9.374,0.517,18.101,1.422,26.376h59.216c0.84-8.275,1.422-17.002,1.422-26.376
		c0-9.374-0.517-18.101-1.422-26.376h-59.216C165.883,178.263,165.366,186.99,165.366,196.364z"/>
	<path style="fill:#FFFFFF;" d="M280.566,148.202c-10.925-19.006-28.121-34.004-48.743-42.214
		c5.818,11.766,10.214,26.246,13.059,42.214H280.566L280.566,148.202z"/>
	<path style="fill:#FFFFFF;" d="M247.855,169.988c0.776,8.663,1.228,17.519,1.228,26.376c0,8.792-0.388,17.713-1.228,26.376h41.826
		c2.392-8.404,3.685-17.261,3.685-26.376c0-9.115-1.422-17.907-3.685-26.376H247.855z"/>
	<path style="fill:#FFFFFF;" d="M160.776,286.675c-5.818-11.636-10.214-26.246-13.059-42.085h-35.62
		C123.022,263.531,140.218,278.529,160.776,286.675z"/>
	<path style="fill:#FFFFFF;" d="M244.945,244.525c-2.844,15.903-7.24,30.448-13.123,42.214
		c20.622-8.145,37.883-23.079,48.743-42.214H244.945z"/>
	<path style="fill:#FFFFFF;" d="M222.707,244.525h-52.622c6.335,30.513,17.842,49.002,26.376,49.002
		C204.8,293.527,216.372,275.038,222.707,244.525z"/>
</g>
<path style="fill:#FFC10D;" d="M333.705,164.234c-3.491-14.998-9.374-29.22-17.519-42.279c-2.715-4.331-2.004-9.891,1.552-13.446
	l18.683-18.683l-33.552-33.552l-18.683,18.683c-3.556,3.556-9.18,4.267-13.446,1.552c-13.059-8.145-27.281-13.964-42.279-17.519
	c-4.913-1.164-8.404-5.56-8.404-10.602V21.883h-47.451v26.505c0,5.107-3.491,9.503-8.404,10.602
	c-14.998,3.491-29.22,9.374-42.279,17.519c-4.331,2.715-9.891,2.004-13.446-1.552L89.794,56.275L56.242,89.826l18.683,18.683
	c3.556,3.556,4.267,9.18,1.552,13.446c-8.145,13.059-13.964,27.281-17.455,42.279c-1.164,4.913-5.56,8.404-10.602,8.404h-26.57
	v47.451h26.505c5.107,0,9.503,3.491,10.602,8.404c3.491,14.998,9.374,29.22,17.455,42.279c2.715,4.331,2.004,9.891-1.552,13.446
	l-18.683,18.683l33.552,33.552l18.683-18.683c3.556-3.556,9.18-4.267,13.446-1.552c13.059,8.145,27.281,13.964,42.279,17.519
	c4.913,1.164,8.404,5.56,8.404,10.602v26.505h47.451v-26.505c0-5.107,3.491-9.503,8.404-10.602
	c14.998-3.491,29.22-9.374,42.279-17.519c4.331-2.715,9.891-2.004,13.446,1.552l18.683,18.683l33.552-33.552l-18.683-18.683
	c-3.556-3.556-4.267-9.18-1.552-13.446c8.145-13.059,13.964-27.281,17.519-42.279c1.164-4.913,5.56-8.404,10.602-8.404h26.505
	v-47.451h-26.505C339.265,172.638,334.869,169.147,333.705,164.234z M196.331,315.313c-65.616,0-118.949-53.333-118.949-118.95
	S130.715,77.414,196.331,77.414s118.949,53.333,118.949,118.949S261.947,315.313,196.331,315.313z"/>
<g>
	<path style="fill:#194F82;" d="M196.331,77.414c-65.616,0-118.949,53.333-118.949,118.949s53.333,118.95,118.949,118.95
		s118.949-53.333,118.949-118.95S261.947,77.414,196.331,77.414z M280.566,148.202h-35.62c-2.844-15.903-7.24-30.448-13.059-42.214
		C252.444,114.198,269.576,129.131,280.566,148.202z M227.297,196.364c0,9.374-0.517,18.101-1.422,26.376h-59.216
		c-0.84-8.275-1.422-17.002-1.422-26.376c0-9.374,0.517-18.101,1.422-26.376h59.216C226.78,178.263,227.297,186.99,227.297,196.364z
		 M196.331,99.2c8.469,0,20.04,18.36,26.376,49.002h-52.622C176.291,117.689,187.863,99.2,196.331,99.2L196.331,99.2L196.331,99.2z
		 M160.84,106.053c-5.883,11.766-10.279,26.246-13.123,42.214h-35.62C123.087,129.131,140.218,114.198,160.84,106.053z
		 M102.917,169.988h41.826c-0.776,8.663-1.228,17.519-1.228,26.376c0,8.857,0.453,17.713,1.228,26.376h-41.826
		c-2.392-8.404-3.685-17.261-3.685-26.376C99.232,187.249,100.59,178.457,102.917,169.988z M147.717,244.525
		c2.844,15.903,7.24,30.448,13.059,42.085c-20.622-8.145-37.818-23.079-48.679-42.085L147.717,244.525L147.717,244.525z
		 M169.956,244.525h52.622c-6.335,30.513-17.842,49.002-26.376,49.002C187.863,293.527,176.291,275.038,169.956,244.525z
		 M231.822,286.675c5.883-11.766,10.214-26.246,13.123-42.214h35.62C269.576,263.596,252.444,278.594,231.822,286.675z
		 M289.681,222.739h-41.826c0.776-8.663,1.228-17.519,1.228-26.376c0-8.857-0.453-17.713-1.228-26.376h41.826
		c2.392,8.404,3.685,17.261,3.685,26.376C293.366,205.479,292.073,214.271,289.681,222.739z"/>
	<path style="fill:#194F82;" d="M381.737,150.853h-28.962c-3.297-11.442-7.887-22.497-13.576-32.905l20.493-20.493
		c4.202-4.073,4.267-11.572,0-15.451l-49.002-49.002c-4.267-4.267-11.119-4.267-15.451,0l-20.558,20.493
		c-10.408-5.689-21.398-10.279-32.905-13.576V11.022c0-6.012-4.848-10.925-10.925-10.925h-69.236
		c-6.012,0-10.925,4.848-10.925,10.925v28.962c-11.442,3.297-22.497,7.887-32.905,13.576L97.422,33.067
		c-2.004-2.004-4.784-3.168-7.758-3.168c-2.844,0-5.624,1.164-7.758,3.168L32.905,82.069c-4.461,4.008-4.202,11.119,0,15.451
		l20.558,20.493c-5.689,10.408-10.279,21.463-13.576,32.905H10.925C4.913,150.917,0,155.766,0,161.842v69.236
		c0,6.012,4.848,10.925,10.925,10.925h28.962c3.297,11.442,7.887,22.497,13.576,32.905l-20.428,20.364
		c-5.107,4.59-4.396,10.796,0,15.451l49.002,49.002c4.073,4.073,11.378,4.073,15.451,0l20.493-20.493
		c10.408,5.689,21.398,10.279,32.905,13.576v28.962c0,6.012,4.848,10.925,10.925,10.925h69.236c6.012,0,10.925-4.848,10.925-10.925
		v-28.962c11.442-3.297,22.497-7.887,32.905-13.576l20.493,20.493c4.267,4.267,11.119,4.267,15.451,0l49.002-49.002
		c4.461-4.396,4.331-10.537,0-15.451l-20.493-20.493c5.689-10.408,10.279-21.463,13.576-32.905h28.962
		c6.012,0,10.925-4.848,10.925-10.925v-69.236C392.598,155.701,387.749,150.853,381.737,150.853z M370.812,220.089h-26.505
		c-5.107,0-9.503,3.491-10.602,8.404c-3.491,14.998-9.374,29.22-17.519,42.279c-2.715,4.331-2.004,9.891,1.552,13.446l18.683,18.683
		l-33.552,33.552l-18.683-18.683c-3.556-3.556-9.18-4.267-13.446-1.552c-13.059,8.145-27.281,13.964-42.279,17.519
		c-4.913,1.164-8.404,5.56-8.404,10.602v26.505h-47.451v-26.505c0-5.107-3.491-9.503-8.404-10.602
		c-14.998-3.491-29.22-9.374-42.279-17.519c-4.331-2.715-9.891-2.004-13.446,1.552l-18.683,18.683l-33.552-33.552l18.683-18.683
		c3.556-3.556,4.267-9.18,1.552-13.446c-8.145-13.059-13.964-27.281-17.455-42.279c-1.164-4.913-5.56-8.404-10.602-8.404h-26.57
		v-47.451h26.505c5.107,0,9.503-3.491,10.602-8.404c3.491-14.998,9.374-29.22,17.455-42.279c2.715-4.331,2.004-9.891-1.552-13.446
		L56.178,89.826l33.552-33.552l18.683,18.683c3.556,3.556,9.18,4.267,13.446,1.552c13.059-8.145,27.281-13.964,42.279-17.519
		c4.913-1.164,8.404-5.56,8.404-10.602V21.883h47.451v26.505c0,5.107,3.491,9.503,8.404,10.602
		c14.998,3.491,29.22,9.374,42.279,17.519c4.331,2.715,9.891,2.004,13.446-1.552l18.683-18.683l33.552,33.552l-18.683,18.683
		c-3.556,3.556-4.267,9.18-1.552,13.446c8.145,13.059,13.964,27.281,17.519,42.279c1.164,4.913,5.56,8.404,10.602,8.404h26.505
		v47.451L370.812,220.089L370.812,220.089z"/>
</g>
</svg>